<svg xmlns="http://www.w3.org/2000/svg" width="13" height="11" viewBox="0 0 13 11">
  <path fill="#FFFFFF" fill-rule="evenodd" d="M43.2616539,47.8675134 L43.7786619,47.8675134 L43.7786619,46.8267355 L43.2616539,46.8267355 L43.2616539,47.8675134 Z M44.3135086,47.8666015 L44.8318068,47.8666015 L44.8318068,46.8270914 L44.3135086,46.8270914 L44.3135086,47.8666015 Z M45.8874206,46.2912215 L47.9925092,46.2912215 L47.9925092,45.7737463 L48.5110743,45.7737463 L48.5110743,44.1928279 L47.9867483,44.1928279 L47.9867483,43.6730395 C47.9605465,43.6688134 47.9465336,43.6645873 47.9324985,43.6645873 C47.2840586,43.6642537 46.6356187,43.6653213 45.9871566,43.6629839 C45.9068829,43.6626967 45.8848182,43.695082 45.8867533,43.7690165 C45.8903789,43.9084112 45.8877987,44.0479838 45.8877987,44.1956305 C45.7344801,44.1956305 45.5977546,44.1999456 45.4614739,44.1940513 C45.376418,44.190359 45.3553987,44.222811 45.3559869,44.3035741 C45.3594246,44.7593259 45.3576452,45.2151 45.3581568,45.6708741 C45.3582013,45.702948 45.3626721,45.7350441 45.3660529,45.7798408 L45.8874206,45.7798408 L45.8874206,46.2912215 Z M42.7270074,45.779129 L42.7270074,44.191093 L42.2021254,44.191093 L42.2021254,43.6697476 L40.1026197,43.6697476 L40.1026197,44.200257 L39.5841658,44.200257 L39.5841658,45.7800855 L40.1043546,45.7800855 L40.1043546,46.2990954 L42.2060846,46.2990954 L42.2060846,45.779129 L42.7270074,45.779129 Z M49.5566344,42.0964807 L50.0892346,42.0964807 L50.0892346,42.2283574 C50.0893903,43.8922186 50.0887007,45.5560798 50.0916819,47.219941 C50.0918369,47.3216566 50.0638779,47.3572226 49.9606721,47.3503051 C49.8325322,47.3417195 49.7033914,47.3482588 49.5617947,47.3482588 L49.5617947,47.8681807 C49.5092575,47.8681807 49.4697324,47.868114 49.4301849,47.8681807 C48.9853765,47.8690037 48.540568,47.8715838 48.0957596,47.8691594 C48.0121494,47.8686923 47.9751377,47.8871314 47.9807206,47.979861 C47.9887057,48.1126496 47.9827447,48.2462612 47.9827447,48.3936855 L46.9425673,48.3936855 L46.9425673,50.491523 L45.891402,50.491523 L45.891402,50.3163621 C45.891402,50.0643085 45.8871537,49.8121213 45.8935373,49.5602233 C45.8959618,49.4648469 45.8635542,49.4390454 45.7731156,49.4437164 C45.6405494,49.4505226 45.5073605,49.4454735 45.3618491,49.4454735 L45.3618491,50.4902551 L44.3118404,50.4902551 C44.3118404,50.3460338 44.3117737,50.2061721 44.3118627,50.0663103 C44.3119517,49.8921059 44.3083039,49.7177458 44.3141092,49.5437193 C44.3168006,49.4632009 44.2871733,49.4408026 44.2117485,49.4440722 C44.1007577,49.4489211 43.9891664,49.4496551 43.8782645,49.4439165 C43.7977461,49.4397127 43.7781949,49.4721869 43.7791958,49.5473226 C43.7828213,49.8178822 43.7806193,50.0885085 43.7806193,50.3591125 L43.7806193,50.489966 L42.7363715,50.489966 L42.7363715,49.4458294 C42.5701522,49.4458294 42.4155881,49.4422039 42.26158,49.450011 C42.2401158,49.4511009 42.2047055,49.5081088 42.2041717,49.5396934 C42.1995675,49.813923 42.2014803,50.0882638 42.2014358,50.3625824 C42.2014358,50.4025524 42.2014358,50.4425002 42.2014358,50.4913673 L41.1593678,50.4913673 L41.1593678,48.4011145 L40.1094704,48.4011145 C40.1094704,48.2673472 40.1094259,48.1428996 40.1094926,48.0184743 C40.1095371,47.8710722 40.1095816,47.8711612 39.9574197,47.8708498 C39.5237325,47.8700268 39.0900454,47.8690926 38.6563583,47.8682252 C38.6199026,47.8681585 38.5834691,47.8682029 38.5338458,47.8682029 L38.5338458,47.3487259 C38.3893131,47.3487259 38.2570805,47.3426982 38.1257154,47.3507055 C38.0272028,47.356711 38.0005338,47.3239031 38.0007785,47.225902 C38.0035366,46.0953305 38.001557,44.9647368 38.0013346,43.834143 C38.0012456,43.2973612 38.0053382,42.7605572 37.9999998,42.2238421 C37.9989546,42.116677 38.0358107,42.0904974 38.1331445,42.0952796 C38.2615513,42.1015965 38.3905364,42.0968366 38.5315103,42.0968366 L38.5315103,41.041979 L39.5743568,41.041979 L39.5743568,40.5364704 C39.5986013,40.5303982 39.6121471,40.5240812 39.6256706,40.5240368 C40.0439881,40.5229024 40.4622833,40.5225465 40.8806007,40.521768 C41.1172625,40.5213232 41.3539687,40.517275 41.5905415,40.5212564 C41.6735066,40.5226355 41.6899439,40.487114 41.6878976,40.4149143 C41.6840274,40.2789006 41.6867855,40.1427088 41.6867855,40.0000222 L46.4028939,40.0000222 L46.4028939,40.5133381 L48.5142327,40.5133381 L48.5142327,41.0375528 L49.5566344,41.0375528 L49.5566344,42.0964807 Z" transform="translate(-38 -40)"/>
</svg>
