<svg width="37" height="35" xmlns="http://www.w3.org/2000/svg">
  <path fill="#FFF" fill-rule="evenodd" d="M37 13.78l-.83.044-.04.76-.781.04v.817h-.85v.803h-.813v.838h-.84v.777l-.8.038v.77h-.792l-.092.83-.768.035v.764l-.826.056v.785l-.822.036-.038.767-.759.036v2.488l.767.045v4.78c.062.04.082.064.104.066.749.058.749.058.748.837v3.184c.057.033.078.055.1.057.708.04.708.04.709.762V35h-1.52c-.014-.033-.038-.067-.04-.102-.032-.706-.031-.706-.734-.708h-.896l-.037-.791h-1.61l-.049-.812c-.39 0-.77-.03-1.142.008-.418.043-.552-.115-.493-.504.015-.099-.012-.203-.022-.338-.41 0-.806-.022-1.197.007-.358.027-.482-.11-.435-.447.014-.1.002-.206.002-.356h-1.546c-.04-.058-.052-.067-.053-.078-.074-.764-.074-.764-.854-.764h-.795v-.773h-.904v.748H16.4l-.04.85h-1.638v.81c-.416 0-.797.024-1.175-.006-.391-.03-.527.126-.472.494.013.088.002.18.002.32h-1.564c-.026.116-.056.188-.055.26 0 .616.055.559-.58.569-.317.005-.633.005-.95.01-.024 0-.048.015-.114.04v.754H8.15v.808H6.614v-1.55h.767v-4.062h.804v-4.873l.834-.045v-2.487l-.808-.045v-.762h-.797v-.797l-.81-.083-.039-.776h-.81v-.792H4.94V17.9l-.84-.04V17.1h-.796l-.037-.84-.773-.035v-.77H1.67c-.03-.278.026-.597-.11-.762-.113-.138-.45-.097-.728-.141l-.04-.735H0v-.749h2.767c.342 0 .685-.003 1.027.004.253.006.368-.075.303-.35-.088-.372.096-.456.453-.451 1.474.018 2.949.007 4.466.007l.052-.85h4.097c0-.42.023-.796-.007-1.168-.03-.372.09-.54.48-.48.09.013.183.001.326.001V8.256c.063-.04.073-.05.084-.052.25-.04.61.007.723-.137.129-.165.041-.499.042-.759.002-.52 0-1.038 0-1.582.284-.014.527-.025.806-.04V4.118l.857-.068V2.486l.805-.043V.833h.791l.04-.773.693-.06.096.837h.776v1.601l.82.052c0 .433.013.847-.004 1.26-.011.271.065.386.36.337.147-.024.307.021.494.038v1.568h.78v2.465l.823.044v1.546c.849.093.848.093.848.92v.745h4.124v.836h4.902l.037.826H37v.705z" />
</svg>
