<svg xmlns="http://www.w3.org/2000/svg" xmlns:xlink="http://www.w3.org/1999/xlink" viewBox="0 0 13 13">
  <defs>
    <filter id="a" width="127.3%" height="127.3%" x="-13.6%" y="-13.6%" filterUnits="objectBoundingBox">
      <feOffset in="SourceAlpha" result="shadowOffsetOuter1"/>
      <feGaussianBlur in="shadowOffsetOuter1" result="shadowBlurOuter1" stdDeviation=".5"/>
      <feColorMatrix in="shadowBlurOuter1" values="0 0 0 0 1 0 0 0 0 1 0 0 0 0 1 0 0 0 0.5 0"/>
    </filter>
    <path id="b" d="M34.943 1.94h-1.29v1.296h.645v.642h.645V1.94zm8.409-.002h-1.234c-.036 0-.061-.006-.061.046.002.613.001 1.226.001 1.839v.054h.65v-.646h.644V1.938zM44 1.292v2.585h-.645l-.003.051c0 .18-.002.36.001.54.001.053-.02.06-.066.06-.396-.001-.791 0-1.187-.002-.042 0-.041.023-.041.053v1.166c0 .074 0 .074-.076.075H41.413v.06c0 .177-.001.353.001.529.001.046-.015.06-.06.06-.173-.002-.348-.001-.522-.001h-.064v.644h-1.294v1.941h.643v.65h.652v1.088c0 .054-.003.107 0 .16.003.04-.013.05-.05.049a40.88 40.88 0 00-.596-.004L39.31 11h-3.07V9.703h.645v-.647h.644V7.114h-1.293V6.47h-.645v-.65h-.645V4.531h-1.292v-.65H33v-.338L33 1.352c0-.047.01-.062.06-.061.395.002.79 0 1.186 0H34.943V0h7.115v1.292H44z"/>
  </defs>
  <g fill="none" fill-rule="evenodd" transform="translate(-32 1)">
    <use fill="#000" filter="url(#a)" xlink:href="#b"/>
    <use fill="#FFF" xlink:href="#b"/>
  </g>
</svg>