<?xml version="1.0" standalone="no"?>
<!DOCTYPE svg PUBLIC "-//W3C//DTD SVG 20010904//EN"
 "http://www.w3.org/TR/2001/REC-SVG-20010904/DTD/svg10.dtd">
<svg version="1.0" xmlns="http://www.w3.org/2000/svg"
 width="1024.000000pt" height="1024.000000pt" viewBox="0 0 1024.000000 1024.000000"
 preserveAspectRatio="xMidYMid meet">
<metadata>
Created by potrace 1.11, written by Peter Selinger 2001-2013
</metadata>
<g transform="translate(0.000000,1024.000000) scale(0.100000,-0.100000)"
fill="#000000" stroke="none">
<path d="M4918 9934 c-2 -1 -59 -5 -128 -8 -69 -4 -138 -8 -155 -10 -16 -3
-61 -7 -100 -11 -38 -4 -79 -9 -90 -11 -11 -2 -40 -6 -65 -9 -25 -3 -57 -8
-72 -11 l-26 -5 -2 -437 c-1 -416 -1 -3043 1 -4352 l0 -615 2785 2 c1532 0
2787 3 2789 5 8 8 20 105 32 263 10 125 10 653 1 760 -15 164 -17 181 -23 235
-9 83 -42 285 -60 370 -9 41 -19 86 -21 100 -3 14 -12 52 -21 85 -8 33 -17 67
-19 75 -34 140 -137 449 -184 555 -5 11 -30 70 -55 130 -91 213 -233 479 -357
669 -32 49 -58 91 -58 93 0 2 -5 9 -10 16 -6 7 -57 75 -113 152 -164 222 -271
346 -467 544 -470 473 -1038 850 -1624 1078 -50 19 -100 39 -111 44 -17 7
-113 39 -300 99 -39 12 -252 68 -285 74 -14 3 -50 10 -80 16 -30 7 -65 13 -77
15 -12 2 -34 6 -50 9 -15 4 -41 9 -58 12 -16 2 -55 9 -85 14 -30 5 -77 12
-105 14 -27 3 -66 8 -85 10 -19 3 -62 8 -95 10 -33 3 -94 8 -135 12 -72 6
-487 13 -492 8z"/>
<path d="M1925 8738 c-204 -179 -490 -491 -658 -717 -40 -53 -75 -97 -79 -99
-5 -2 -8 -10 -8 -17 0 -7 -3 -15 -7 -17 -16 -7 -223 -327 -223 -345 0 -3 -6
-14 -14 -22 -21 -25 -206 -378 -206 -394 0 -3 -16 -40 -36 -84 -19 -43 -39
-87 -44 -98 -35 -76 -163 -456 -173 -510 -2 -11 -9 -40 -16 -65 -7 -25 -15
-52 -17 -60 -2 -8 -9 -35 -15 -60 -6 -25 -13 -55 -14 -67 -2 -12 -8 -37 -14
-55 -5 -18 -13 -51 -16 -73 -3 -22 -7 -47 -10 -55 -2 -8 -6 -33 -10 -55 -3
-22 -8 -53 -10 -70 -3 -16 -7 -46 -9 -65 -2 -19 -7 -55 -10 -80 -23 -169 -30
-314 -31 -585 0 -278 14 -573 31 -652 5 -28 -78 -25 927 -27 639 -1 730 1 736
14 4 8 6 922 4 2030 -1 1108 -2 2024 -2 2035 0 26 0 22 -1 148 -1 59 -3 107
-3 107 -1 0 -33 -28 -72 -62z"/>
<path d="M595 3512 c6 -26 67 -197 84 -237 5 -11 21 -46 35 -78 14 -32 26 -60
26 -62 0 -17 145 -301 217 -423 71 -122 224 -357 263 -405 5 -7 45 -57 87
-112 42 -55 80 -102 83 -105 3 -3 30 -34 60 -70 158 -185 547 -562 552 -533 0
4 2 468 2 1030 l2 1022 -709 0 -709 0 7 -27z"/>
<path d="M4280 2988 c-1 -468 -1 -1872 -1 -2133 0 -44 0 -89 0 -100 0 -11 0
-93 1 -182 0 -144 2 -162 18 -167 23 -6 68 -14 122 -21 25 -4 56 -8 70 -10 14
-2 54 -7 90 -10 36 -4 73 -9 82 -10 118 -23 769 -23 887 0 9 1 45 6 81 10 100
11 130 15 195 26 33 5 76 12 95 15 296 40 833 205 1158 355 37 17 83 38 102
47 19 9 38 20 41 25 3 5 9 8 13 7 7 -1 185 87 202 101 6 5 33 21 60 35 68 36
359 222 398 255 6 5 54 42 107 82 85 64 123 94 219 177 193 165 442 419 575
585 22 27 46 56 52 63 44 46 221 296 325 457 152 235 353 643 433 876 l23 66
-2674 2 -2673 2 -1 -553z"/>
</g>
</svg>
